<svg width="1024" height="1024" viewBox="0 0 1024 1024" fill="none" xmlns="http://www.w3.org/2000/svg">
<path fill-rule="evenodd" clip-rule="evenodd" d="M474.004 438.257C474.181 417.713 476.568 417.127 492.395 433.75C503.409 445.318 505.25 448.063 503.343 450.066C500.583 452.967 477.728 455.413 475.478 453.051C474.604 452.133 473.941 445.476 474.004 438.257Z" fill="#DC6143"/>
<path fill-rule="evenodd" clip-rule="evenodd" d="M394.433 336.245C376.666 317.748 374.197 318.226 374.004 340.198C373.937 347.84 374.779 355.028 375.876 356.169C377.961 358.341 405.45 355.858 407.931 353.275C408.718 352.456 402.643 344.792 394.433 336.245Z" fill="#DC6143"/>
<path fill-rule="evenodd" clip-rule="evenodd" d="M386.057 244.305C385.539 242.007 388.519 238.094 395.812 231.499L406.313 222L605.157 418.829L804 615.658L793.262 626.328L782.526 637L771.896 628.434C756.116 615.718 386.927 248.165 386.057 244.305Z" fill="#DC6143"/>
<path fill-rule="evenodd" clip-rule="evenodd" d="M535.501 92.89C528.988 97.5895 499.981 125.047 470.845 154.122L418 206.834L616.995 405.418L815.99 604L874.585 544.53C939.256 478.896 940.432 477.353 945.227 451.778C946.447 445.263 947.633 368.897 947.861 282.075L947.873 277.603L947.894 270.047C948.254 135.89 948.315 113.575 937.345 100.421C935.155 97.7967 932.527 95.536 929.374 92.8249C928.915 92.4293 928.443 92.0234 927.959 91.6055C920.013 84.7343 913.23 80.9151 904.299 78.2828C895.147 75.5854 848.602 74.7222 731.358 75.075L724.781 75.0938C586.581 75.5083 563.906 75.5751 546.729 85.3064C543.358 87.216 540.199 89.4972 536.42 92.2272L535.501 92.89ZM832.78 272.391C816.931 288.658 793.022 293.572 770.106 285.274C746.953 276.889 733.009 255.474 733.465 228.994C733.735 213.317 738.854 201.592 750.564 189.907C772.644 167.848 811.384 168.243 833.945 190.758C843.175 199.967 849.801 218.242 849.209 232.851C848.499 250.387 844.244 260.627 832.78 272.391Z" fill="#DC6143"/>
<path d="M571.238 535.235C573.022 514.426 574.792 514.1 591.537 531.508C603.454 543.897 605.355 546.718 603.263 548.893C599.637 552.663 575.828 554.591 572.726 551.365C571.276 549.858 570.606 542.598 571.238 535.235Z" fill="#DC6143"/>
<path fill-rule="evenodd" clip-rule="evenodd" d="M690.179 631.272C673.406 614.371 671.698 614.603 670.196 633.987C669.672 640.762 670.235 647.351 671.449 648.629C673.807 651.108 700.184 649.966 702.861 647.269C703.879 646.244 699.273 640.434 690.179 631.272Z" fill="#DC6143"/>
<path fill-rule="evenodd" clip-rule="evenodd" d="M591.319 703.37C589.346 700.645 588.458 697.709 589.343 696.843C592.378 693.874 622.483 692.852 625.315 695.623C628.247 698.491 627.079 727.599 623.908 730.701C622.921 731.667 619.808 730.213 616.989 727.471C614.164 724.737 608.05 719.299 603.385 715.404C598.72 711.508 593.29 706.093 591.319 703.37Z" fill="#DC6143"/>
<path fill-rule="evenodd" clip-rule="evenodd" d="M261.88 363.975C259.195 366.593 257 369.673 257 370.821C257 371.969 259.871 375.785 263.377 379.301C269.459 385.411 271.447 385.688 307.356 385.411L344.964 385.123L344.087 420.675L343.209 456.224L357.466 470.525L371.725 484.823L407.102 484.015L442.479 483.207L441.973 519.033L441.465 554.857L455.78 569.168L470.094 583.477L505.88 582.66L541.666 581.841L540.771 617.656L539.875 653.471L554.166 667.802L568.458 682.135L604.079 681.322L639.703 680.507L638.71 716.053L637.718 751.598L645.397 759.299L653.075 767L659.48 760.577C665.411 754.628 665.942 751.989 666.672 724.751L667.463 695.346L682.117 708.478L696.773 721.611L731.887 686.396L767 651.181L569.482 453.089L371.965 255L336.851 290.217L301.738 325.432L316.07 341.371L330.403 357.31L298.581 358.264C272.765 359.038 265.837 360.116 261.88 363.975ZM398.565 366.195C414.723 365.184 430.932 364.182 434.583 363.971L441.222 363.585L403.347 325.6L365.472 287.617L363.853 327.864C362.662 357.437 363.155 368.101 365.71 368.072C367.621 368.05 382.407 367.206 398.565 366.195ZM500.742 463.972L539.238 461.885L501.604 424.144L463.972 386.401L463.673 394.711C463.509 399.281 462.699 416.709 461.873 433.443C461.047 450.174 460.793 464.359 461.308 464.962C461.825 465.564 479.569 465.12 500.742 463.972ZM584.162 610.904C592.06 618.33 604.546 630.853 611.912 638.734L625.3 653.061L595.72 654.058L566.139 655.057L567.97 626.23L569.802 597.403L584.162 610.904ZM499.84 555.412L528.36 554.276L499.854 525.687L471.346 497.097L470.83 506.752C469.781 526.334 469.541 554.761 470.417 555.64C470.915 556.139 484.154 556.036 499.84 555.412ZM626.671 561.309L638.048 560.981L599.994 522.817L561.939 484.653L561.48 506.888C561.229 519.117 560.413 537.173 559.667 547.016L558.312 564.907L586.802 563.272C602.473 562.373 620.412 561.491 626.671 561.309ZM686.286 661.792C701.372 660.997 718.823 660.186 725.067 659.99L736.417 659.635L698.549 621.659L660.682 583.681L658.935 622.386C657.976 643.674 657.565 661.574 658.024 662.164C658.48 662.754 671.199 662.588 686.286 661.792ZM415.171 441.423C407.809 433.545 395.199 420.899 387.151 413.324L372.517 399.547L371.214 428.525L369.908 457.503L399.232 456.624L428.558 455.749L415.171 441.423Z" fill="#DC6143"/>
<path fill-rule="evenodd" clip-rule="evenodd" d="M299.111 410.644C295.122 406.058 293.193 402.271 294.317 401.235C297.153 398.621 326.824 398.135 329.396 400.661C332.507 403.716 330.724 431.283 327.191 434.751C324.641 437.256 323.236 436.471 315.047 427.952C309.953 422.654 302.782 414.866 299.111 410.644Z" fill="#DC6143"/>
<path fill-rule="evenodd" clip-rule="evenodd" d="M398.266 508.162C393.745 502.841 392.094 499.307 393.472 497.919C396.816 494.557 425.863 493.867 429.051 497.074C432.553 500.596 430.991 529.957 427.093 533.877C424.697 536.286 422.971 535.253 414.737 526.482C409.473 520.874 402.06 512.631 398.266 508.162Z" fill="#DC6143"/>
<path fill-rule="evenodd" clip-rule="evenodd" d="M491.727 596.589C490.708 597.632 490.768 600.075 491.858 602.019C492.948 603.963 500.258 611.85 508.101 619.547C519.557 630.788 522.926 633.148 525.229 631.551C528.892 629.012 530.523 599.273 527.188 595.857C524.391 592.991 494.64 593.604 491.727 596.589Z" fill="#DC6143"/>
<path fill-rule="evenodd" clip-rule="evenodd" d="M221.439 507.603C192.324 477.811 172 455.766 172 453.978C171.998 450.479 270.986 449.825 274.455 453.3C275.635 454.482 276.587 476.546 276.572 502.333L276.545 549.218L323.566 549.407C349.428 549.51 371.602 550.61 372.839 551.85C374.077 553.091 375.078 575.223 375.063 601.035L375.035 647.964L421.963 648.012C447.772 648.04 469.944 649.119 471.234 650.411C472.525 651.703 473.568 673.88 473.553 699.692L473.526 746.621L520.453 746.669C546.262 746.697 568.434 747.776 569.724 749.068C573.013 752.363 572.619 846.315 569.303 849.637C566.743 852.2 558.73 844.489 430.812 716.354C356.137 641.552 289.601 575.364 282.958 569.271C276.313 563.177 248.63 535.427 221.439 507.603ZM553.375 789.889L553.036 765.358L529.111 765.584L505.186 765.811L529.45 790.115L553.716 814.422L553.375 789.889ZM454.531 666.548L454.877 691.156L455.225 715.765L431.333 691.833L407.441 667.9L430.987 667.224L454.531 666.548ZM355.953 568.545C356.601 568.785 356.858 579.628 356.529 592.64L355.928 616.3L332.64 592.973L309.353 569.647L332.066 568.878C344.558 568.454 355.308 568.305 355.953 568.545ZM257.783 469.519L257.79 493.76L257.795 518.002L233.59 493.755L209.382 469.507L233.583 469.514L257.783 469.519Z" fill="#DC6143"/>
<path fill-rule="evenodd" clip-rule="evenodd" d="M196.235 430.282C192.255 434.27 189 438.468 189 439.612C189 440.757 189.579 442.274 190.288 442.982C190.994 443.692 212.838 444.051 238.827 443.781L286.079 443.292L285.913 490.952C285.821 517.166 286.485 539.353 287.388 540.258C288.292 541.163 310.551 541.892 336.856 541.878L384.68 541.854L384.335 589.444C384.144 615.617 384.696 637.741 385.56 638.608C386.424 639.473 408.492 640.204 434.601 640.23L482.071 640.279L482.263 688.24C482.426 729.219 483.104 736.39 486.912 737.488C489.364 738.196 511.45 738.725 535.989 738.663L580.61 738.554L580.437 784.548C580.342 809.845 581.172 831.45 582.28 832.56C583.668 833.953 586.805 832.066 592.372 826.488C598.52 820.328 600.5 816.725 600.665 811.391L600.882 804.386L604.369 807.879C607.367 810.883 608.501 810.589 612.429 805.811C616.974 800.286 616.949 800.192 608.156 790.431C602.448 784.095 599.205 778.631 599.016 775.033C598.739 769.73 599.364 770.021 611.758 780.954L624.791 792.449L631.895 786.293L639 780.136L440.997 582.567L242.995 385L236.764 391.242L230.533 397.483L243.661 411.532C256.592 425.375 256.698 425.583 250.821 425.582C246.355 425.58 242.071 423.026 233.8 415.432L222.747 405.285L218.088 409.95C214.135 413.91 214.014 415.449 217.281 420.126L221.131 425.636L212.3 424.336C204.547 423.194 202.587 423.921 196.235 430.282ZM348.543 523.507L355.621 524.356L330.236 498.925C304.949 473.592 304.846 473.521 304.556 479.441C304.293 484.754 306.241 487.37 322.865 504.023C339.107 520.295 342.363 522.767 348.543 523.507ZM427.663 596.528C452.201 621.11 452.276 621.209 446.364 621.503C441.047 621.768 438.45 619.816 421.432 602.768C404.416 585.722 402.468 583.118 402.731 577.793C403.021 571.872 403.124 571.944 427.663 596.528ZM525.72 694.761C549.617 718.702 550.007 719.215 545.318 720.637C540.929 721.966 538.974 720.512 521.552 702.964C505.002 686.294 502.49 682.978 501.954 677.089L501.338 670.335L525.72 694.761ZM510.265 719.846C516.113 719.555 516.101 719.453 509.483 712.822C502.866 706.194 502.764 706.182 502.473 712.041C502.311 715.311 502.663 718.473 503.254 719.064C503.844 719.656 507 720.009 510.265 719.846ZM417.522 620.696L410.241 621.202C406.237 621.483 402.922 621.649 402.879 621.573C402.835 621.498 403.013 618.166 403.276 614.17L403.754 606.903L410.637 613.798L417.522 620.696ZM319.911 522.909L312.358 523.143C308.202 523.271 304.655 523.23 304.476 523.049C304.295 522.868 304.751 519.814 305.488 516.261L306.829 509.803L313.371 516.357L319.911 522.909Z" fill="#DC6143"/>
<path fill-rule="evenodd" clip-rule="evenodd" d="M157.031 470.583C153.409 473.652 150.706 477.27 151.026 478.622C151.514 480.684 486.557 815.927 531.897 859.718L546.684 874L552.842 866.892L559 859.783L361.31 662.391L163.619 465L157.031 470.583Z" fill="#DC6143"/>
<path fill-rule="evenodd" clip-rule="evenodd" d="M125.395 500.51L134.739 491L143.95 500.375C155.213 511.839 153.762 513.806 133.902 513.99C115.129 514.164 113.896 512.214 125.395 500.51Z" fill="#DC6143"/>
<path fill-rule="evenodd" clip-rule="evenodd" d="M176.616 598.411L176.782 550.679L129.89 550.667C99.0609 550.659 83 549.596 83 547.564C82.9983 545.864 86.6087 539.886 91.0202 534.28L99.0421 524.088L133.083 524.043L167.125 524L185.248 542.18L203.37 560.36L203.197 591.541L203.022 622.722L234.339 622.784L265.655 622.845L284.153 641.403L302.652 659.961L302.079 690.647L301.505 721.334L332.299 720.964L363.092 720.595L381.971 739.534L400.851 758.475L400.269 789.307L399.687 820.139L430.494 819.629L461.301 819.118L480.651 838.531L500 857.942L499.95 888.494L499.901 919.048L488.609 930.378C478.519 940.498 476.996 941.386 474.32 938.7C472.5 936.876 471.711 918.238 472.31 891.237L473.298 846.778L425.04 846.946C398.499 847.04 376.036 846.367 375.123 845.452C374.211 844.535 373.418 822.241 373.365 795.911L373.267 748.034L325.978 748.37C299.968 748.556 277.669 747.683 276.421 746.433C275.175 745.183 274.38 722.886 274.656 696.885L275.159 649.611L227.413 649.49C201.153 649.423 178.944 648.644 178.059 647.756C177.174 646.866 176.524 624.662 176.616 598.411Z" fill="#DC6143"/>
<path fill-rule="evenodd" clip-rule="evenodd" d="M235.683 592.275C217.699 575.132 215.198 575.576 215.004 595.938C214.936 603.022 215.656 609.557 216.605 610.46C219.366 613.092 245.086 612.122 248.075 609.274C250.453 607.006 248.889 604.861 235.683 592.275Z" fill="#DC6143"/>
<path fill-rule="evenodd" clip-rule="evenodd" d="M129.171 625.985L129.164 600.421L106.237 600.34C93.6273 600.296 82.0148 598.985 80.4308 597.43C76.2968 593.367 74.4289 579.63 77.5883 576.525C80.8878 573.282 150.424 573.105 153.708 576.331C156.625 579.198 156.824 667.216 153.921 671.049C152.195 673.331 149.846 671.866 140.503 662.683L129.176 651.551L129.171 625.985Z" fill="#DC6143"/>
<path fill-rule="evenodd" clip-rule="evenodd" d="M205.147 672.001C178.308 671.973 155.453 672.83 154.36 673.907C152.942 675.3 155.643 679.081 163.764 687.072L175.155 698.282L201.148 698.355L227.141 698.428L227.216 724.005L227.29 749.585L237.725 759.853C245.036 767.045 249.044 769.735 251.105 768.831C252.874 768.056 254.029 748.487 253.999 719.795L253.949 672.05L205.147 672.001Z" fill="#DC6143"/>
<path fill-rule="evenodd" clip-rule="evenodd" d="M93.3974 611.902C95.6961 609.443 114.336 609.336 116.61 611.771C119.075 614.41 118.043 630.992 115.227 634.009C113.055 636.333 111.009 634.996 102.039 625.39C94.3216 617.126 91.9614 613.442 93.3974 611.902Z" fill="#DC6143"/>
<path fill-rule="evenodd" clip-rule="evenodd" d="M193.397 711.826C194.484 710.735 200.043 709.915 205.752 710.007C216.117 710.172 216.134 710.181 216.635 716.537C218.172 735.988 215.139 737.636 202.033 724.47C194.321 716.724 191.962 713.268 193.397 711.826Z" fill="#DC6143"/>
<path fill-rule="evenodd" clip-rule="evenodd" d="M351.889 770.407C348.93 767.436 254.737 769.637 254.02 772.694C253.664 774.204 258.172 780.233 264.108 786.188L274.838 796.955L300.458 796.805L326.075 796.657L326.149 822.584L326.223 848.51L336.782 859.104C345.764 868.116 347.748 869.291 350.066 866.964C352.503 864.521 354.234 772.76 351.889 770.407Z" fill="#DC6143"/>
<path fill-rule="evenodd" clip-rule="evenodd" d="M290.183 809.442C293.489 806.353 301.119 805.171 308.482 806.605C315.705 808.013 315.807 808.174 315.981 818.466C316.249 834.226 313.751 834.789 300.103 822.037C292.936 815.341 289.092 810.462 290.183 809.442Z" fill="#DC6143"/>
<path fill-rule="evenodd" clip-rule="evenodd" d="M334.432 690.438C317.576 671.817 315.878 672.13 315.076 693.997C314.788 701.846 315.34 709.138 316.302 710.199C318.999 713.178 343.232 712.233 346.126 709.034C348.372 706.555 346.896 704.207 334.432 690.438Z" fill="#DC6143"/>
<path fill-rule="evenodd" clip-rule="evenodd" d="M412.299 791.828C412.899 784.35 414.295 777.363 415.4 776.297C416.867 774.869 421.714 778.467 433.573 789.776C445.676 801.32 449.213 805.688 447.654 807.175C445.102 809.608 415.597 809.608 413.045 807.175C412.033 806.21 411.697 799.304 412.299 791.828Z" fill="#DC6143"/>
<path fill-rule="evenodd" clip-rule="evenodd" d="M402.838 869.001C373.781 868.971 353.954 870.131 353.167 871.907C352.239 874 355.133 878.181 363.073 886.211L374.291 897.557L399.449 896.629L424.606 895.7L424.75 918.778C424.833 932.059 426.242 943.211 428.07 945.046C429.816 946.799 435.632 948.63 440.992 949.116L450.742 950L451.576 932.992C452.035 923.639 452.137 905.426 451.804 892.518L451.198 869.051L402.838 869.001Z" fill="#DC6143"/>
<path fill-rule="evenodd" clip-rule="evenodd" d="M390.411 907.977C391.537 906.795 397.296 905.908 403.21 906.008C413.92 906.185 413.965 906.214 414.547 913.064C416.345 934.239 413.091 936.082 399.358 921.664C391.368 913.277 388.925 909.537 390.411 907.977Z" fill="#DC6143"/>
<path fill-rule="evenodd" clip-rule="evenodd" d="M523.19 879.814C513.542 870.333 510.779 872.109 511.014 887.646C511.248 903.042 513.66 904.531 523.195 895.161L531 887.489L523.19 879.814Z" fill="#DC6143"/>
<path fill-rule="evenodd" clip-rule="evenodd" d="M474.004 438.257C474.181 417.713 476.568 417.127 492.395 433.75C503.409 445.318 505.25 448.063 503.343 450.066C500.583 452.967 477.728 455.413 475.478 453.051C474.604 452.133 473.941 445.476 474.004 438.257Z" fill="#DC6143"/>
<path fill-rule="evenodd" clip-rule="evenodd" d="M394.433 336.245C376.666 317.748 374.197 318.226 374.004 340.198C373.937 347.84 374.779 355.028 375.876 356.169C377.961 358.341 405.45 355.858 407.931 353.275C408.718 352.456 402.643 344.792 394.433 336.245Z" fill="#DC6143"/>
<path fill-rule="evenodd" clip-rule="evenodd" d="M386.057 244.305C385.539 242.007 388.519 238.094 395.812 231.499L406.313 222L605.157 418.829L804 615.658L793.262 626.328L782.526 637L771.896 628.434C756.116 615.718 386.927 248.165 386.057 244.305Z" fill="#DC6143"/>
<path fill-rule="evenodd" clip-rule="evenodd" d="M535.501 92.89C528.988 97.5895 499.981 125.047 470.845 154.122L418 206.834L616.995 405.418L815.99 604L874.585 544.53C939.256 478.896 940.432 477.353 945.227 451.778C946.447 445.263 947.633 368.897 947.861 282.075L947.873 277.603L947.894 270.047C948.254 135.89 948.315 113.575 937.345 100.421C935.155 97.7967 932.527 95.536 929.374 92.8249C928.915 92.4293 928.443 92.0234 927.959 91.6055C920.013 84.7343 913.23 80.9151 904.299 78.2828C895.147 75.5854 848.602 74.7222 731.358 75.075L724.783 75.0938C586.582 75.5083 563.906 75.5751 546.729 85.3064C543.358 87.216 540.199 89.4972 536.42 92.2272L535.501 92.89ZM832.78 272.391C816.931 288.658 793.022 293.572 770.106 285.274C746.953 276.889 733.009 255.474 733.465 228.994C733.735 213.317 738.854 201.592 750.564 189.907C772.644 167.848 811.384 168.243 833.945 190.758C843.175 199.967 849.801 218.242 849.209 232.851C848.499 250.387 844.244 260.627 832.78 272.391Z" fill="#DC6143"/>
<path d="M571.238 535.235C573.022 514.426 574.792 514.1 591.537 531.508C603.454 543.897 605.355 546.718 603.263 548.893C599.637 552.663 575.828 554.591 572.726 551.365C571.276 549.858 570.606 542.598 571.238 535.235Z" fill="#DC6143"/>
<path fill-rule="evenodd" clip-rule="evenodd" d="M690.179 631.272C673.406 614.371 671.698 614.603 670.196 633.987C669.672 640.762 670.235 647.351 671.449 648.629C673.807 651.108 700.184 649.966 702.861 647.269C703.879 646.244 699.273 640.434 690.179 631.272Z" fill="#DC6143"/>
<path fill-rule="evenodd" clip-rule="evenodd" d="M591.319 703.37C589.346 700.645 588.458 697.709 589.343 696.843C592.378 693.874 622.483 692.852 625.315 695.623C628.247 698.491 627.079 727.599 623.908 730.701C622.921 731.667 619.808 730.213 616.989 727.471C614.164 724.737 608.05 719.299 603.385 715.404C598.72 711.508 593.29 706.093 591.319 703.37Z" fill="#DC6143"/>
<path fill-rule="evenodd" clip-rule="evenodd" d="M261.88 363.975C259.195 366.593 257 369.673 257 370.821C257 371.969 259.871 375.785 263.377 379.301C269.459 385.411 271.447 385.688 307.356 385.411L344.964 385.123L344.087 420.675L343.209 456.224L357.466 470.525L371.725 484.823L407.102 484.015L442.479 483.207L441.973 519.033L441.465 554.857L455.78 569.168L470.094 583.477L505.88 582.66L541.666 581.841L540.771 617.656L539.875 653.471L554.166 667.802L568.458 682.135L604.079 681.322L639.703 680.507L638.71 716.053L637.718 751.598L645.397 759.299L653.075 767L659.48 760.577C665.411 754.628 665.942 751.989 666.672 724.751L667.463 695.346L682.117 708.478L696.773 721.611L731.887 686.396L767 651.181L569.482 453.089L371.965 255L336.851 290.217L301.738 325.432L316.07 341.371L330.403 357.31L298.581 358.264C272.765 359.038 265.837 360.116 261.88 363.975ZM398.565 366.195C414.723 365.184 430.932 364.182 434.583 363.971L441.222 363.585L403.347 325.6L365.472 287.617L363.853 327.864C362.662 357.437 363.155 368.101 365.71 368.072C367.621 368.05 382.407 367.206 398.565 366.195ZM500.742 463.972L539.238 461.885L501.604 424.144L463.972 386.401L463.673 394.711C463.509 399.281 462.699 416.709 461.873 433.443C461.047 450.174 460.793 464.359 461.308 464.962C461.825 465.564 479.569 465.12 500.742 463.972ZM584.162 610.904C592.06 618.33 604.546 630.853 611.912 638.734L625.3 653.061L595.72 654.058L566.139 655.057L567.97 626.23L569.802 597.403L584.162 610.904ZM499.84 555.412L528.36 554.276L499.854 525.687L471.346 497.097L470.83 506.752C469.781 526.334 469.541 554.761 470.417 555.64C470.915 556.139 484.154 556.036 499.84 555.412ZM626.671 561.309L638.048 560.981L599.994 522.817L561.939 484.653L561.48 506.888C561.229 519.117 560.413 537.173 559.667 547.016L558.312 564.907L586.802 563.272C602.473 562.373 620.412 561.491 626.671 561.309ZM686.286 661.792C701.372 660.997 718.823 660.186 725.067 659.99L736.417 659.635L698.549 621.659L660.682 583.681L658.935 622.386C657.976 643.674 657.565 661.574 658.024 662.164C658.48 662.754 671.199 662.588 686.286 661.792ZM415.171 441.423C407.809 433.545 395.199 420.899 387.151 413.324L372.517 399.547L371.214 428.525L369.908 457.503L399.232 456.624L428.558 455.749L415.171 441.423Z" fill="#DC6143"/>
<path fill-rule="evenodd" clip-rule="evenodd" d="M299.111 410.644C295.122 406.058 293.193 402.271 294.317 401.235C297.153 398.621 326.824 398.135 329.396 400.661C332.507 403.716 330.724 431.283 327.191 434.751C324.641 437.256 323.236 436.471 315.047 427.952C309.953 422.654 302.782 414.866 299.111 410.644Z" fill="#DC6143"/>
<path fill-rule="evenodd" clip-rule="evenodd" d="M398.266 508.162C393.745 502.841 392.094 499.307 393.472 497.919C396.816 494.557 425.863 493.867 429.051 497.074C432.553 500.596 430.991 529.957 427.093 533.877C424.697 536.286 422.971 535.253 414.737 526.482C409.473 520.874 402.06 512.631 398.266 508.162Z" fill="#DC6143"/>
<path fill-rule="evenodd" clip-rule="evenodd" d="M491.727 596.589C490.708 597.632 490.768 600.075 491.858 602.019C492.948 603.963 500.258 611.85 508.101 619.547C519.557 630.788 522.926 633.148 525.229 631.551C528.892 629.012 530.523 599.273 527.188 595.857C524.391 592.991 494.64 593.604 491.727 596.589Z" fill="#DC6143"/>
<path fill-rule="evenodd" clip-rule="evenodd" d="M221.439 507.603C192.324 477.811 172 455.766 172 453.978C171.998 450.479 270.986 449.825 274.455 453.3C275.635 454.482 276.587 476.546 276.572 502.333L276.545 549.218L323.566 549.407C349.428 549.51 371.602 550.61 372.839 551.85C374.077 553.091 375.078 575.223 375.063 601.035L375.035 647.964L421.963 648.012C447.772 648.04 469.944 649.119 471.234 650.411C472.525 651.703 473.568 673.88 473.553 699.692L473.526 746.621L520.453 746.669C546.262 746.697 568.434 747.776 569.724 749.068C573.013 752.363 572.619 846.315 569.303 849.637C566.743 852.2 558.73 844.489 430.812 716.354C356.137 641.552 289.601 575.364 282.958 569.271C276.313 563.177 248.63 535.427 221.439 507.603ZM553.375 789.889L553.036 765.358L529.111 765.584L505.186 765.811L529.45 790.115L553.716 814.422L553.375 789.889ZM454.531 666.548L454.877 691.156L455.225 715.765L431.333 691.833L407.441 667.9L430.987 667.224L454.531 666.548ZM355.953 568.545C356.601 568.785 356.858 579.628 356.529 592.64L355.928 616.3L332.64 592.973L309.353 569.647L332.066 568.878C344.558 568.454 355.308 568.305 355.953 568.545ZM257.783 469.519L257.79 493.76L257.795 518.002L233.59 493.755L209.382 469.507L233.583 469.514L257.783 469.519Z" fill="#DC6143"/>
<path fill-rule="evenodd" clip-rule="evenodd" d="M196.235 430.282C192.255 434.27 189 438.468 189 439.612C189 440.757 189.579 442.274 190.288 442.982C190.994 443.692 212.838 444.051 238.827 443.781L286.079 443.292L285.913 490.952C285.821 517.166 286.485 539.353 287.388 540.258C288.292 541.163 310.551 541.892 336.856 541.878L384.68 541.854L384.335 589.444C384.144 615.617 384.696 637.741 385.56 638.608C386.424 639.473 408.492 640.204 434.601 640.23L482.071 640.279L482.263 688.24C482.426 729.219 483.104 736.39 486.912 737.488C489.364 738.196 511.45 738.725 535.989 738.663L580.61 738.554L580.437 784.548C580.342 809.845 581.172 831.45 582.28 832.56C583.668 833.953 586.805 832.066 592.372 826.488C598.52 820.328 600.5 816.725 600.665 811.391L600.882 804.386L604.369 807.879C607.367 810.883 608.501 810.589 612.429 805.811C616.974 800.286 616.949 800.192 608.156 790.431C602.448 784.095 599.205 778.631 599.016 775.033C598.739 769.73 599.364 770.021 611.758 780.954L624.791 792.449L631.895 786.293L639 780.136L440.997 582.567L242.995 385L236.764 391.242L230.533 397.483L243.661 411.532C256.592 425.375 256.698 425.583 250.821 425.582C246.355 425.58 242.071 423.026 233.8 415.432L222.747 405.285L218.088 409.95C214.135 413.91 214.014 415.449 217.281 420.126L221.131 425.636L212.3 424.336C204.547 423.194 202.587 423.921 196.235 430.282ZM348.543 523.507L355.621 524.356L330.236 498.925C304.949 473.592 304.846 473.521 304.556 479.441C304.293 484.754 306.241 487.37 322.865 504.023C339.107 520.295 342.363 522.767 348.543 523.507ZM427.663 596.528C452.201 621.11 452.276 621.209 446.364 621.503C441.047 621.768 438.45 619.816 421.432 602.768C404.416 585.722 402.468 583.118 402.731 577.793C403.021 571.872 403.124 571.944 427.663 596.528ZM525.72 694.761C549.617 718.702 550.007 719.215 545.318 720.637C540.929 721.966 538.974 720.512 521.552 702.964C505.002 686.294 502.49 682.978 501.954 677.089L501.338 670.335L525.72 694.761ZM510.265 719.846C516.113 719.555 516.101 719.453 509.483 712.822C502.866 706.194 502.764 706.182 502.473 712.041C502.311 715.311 502.663 718.473 503.254 719.064C503.844 719.656 507 720.009 510.265 719.846ZM417.522 620.696L410.241 621.202C406.237 621.483 402.922 621.649 402.879 621.573C402.835 621.498 403.013 618.166 403.276 614.17L403.754 606.903L410.637 613.798L417.522 620.696ZM319.911 522.909L312.358 523.143C308.202 523.271 304.655 523.23 304.476 523.049C304.295 522.868 304.751 519.814 305.488 516.261L306.829 509.803L313.371 516.357L319.911 522.909Z" fill="#DC6143"/>
<path fill-rule="evenodd" clip-rule="evenodd" d="M157.031 470.583C153.409 473.652 150.706 477.27 151.026 478.622C151.514 480.684 486.557 815.927 531.897 859.718L546.684 874L552.842 866.892L559 859.783L361.31 662.391L163.619 465L157.031 470.583Z" fill="#DC6143"/>
<path fill-rule="evenodd" clip-rule="evenodd" d="M125.395 500.51L134.739 491L143.95 500.375C155.213 511.839 153.762 513.806 133.902 513.99C115.129 514.164 113.896 512.214 125.395 500.51Z" fill="#DC6143"/>
<path fill-rule="evenodd" clip-rule="evenodd" d="M176.616 598.411L176.782 550.679L129.89 550.667C99.0609 550.659 83 549.596 83 547.564C82.9983 545.864 86.6087 539.886 91.0202 534.28L99.0421 524.088L133.083 524.043L167.125 524L185.248 542.18L203.37 560.36L203.197 591.541L203.022 622.722L234.339 622.784L265.655 622.845L284.153 641.403L302.652 659.961L302.079 690.647L301.505 721.334L332.299 720.964L363.092 720.595L381.971 739.534L400.851 758.475L400.269 789.307L399.687 820.139L430.494 819.629L461.301 819.118L480.651 838.531L500 857.942L499.95 888.494L499.901 919.048L488.609 930.378C478.519 940.498 476.996 941.386 474.32 938.7C472.5 936.876 471.711 918.238 472.31 891.237L473.298 846.778L425.04 846.946C398.499 847.04 376.036 846.367 375.123 845.452C374.211 844.535 373.418 822.241 373.365 795.911L373.267 748.034L325.978 748.37C299.968 748.556 277.669 747.683 276.421 746.433C275.175 745.183 274.38 722.886 274.656 696.885L275.159 649.611L227.413 649.49C201.153 649.423 178.944 648.644 178.059 647.756C177.174 646.866 176.524 624.662 176.616 598.411Z" fill="#DC6143"/>
<path fill-rule="evenodd" clip-rule="evenodd" d="M235.683 592.275C217.699 575.132 215.198 575.576 215.004 595.938C214.936 603.022 215.656 609.557 216.605 610.46C219.366 613.092 245.086 612.122 248.075 609.274C250.453 607.006 248.889 604.861 235.683 592.275Z" fill="#DC6143"/>
<path fill-rule="evenodd" clip-rule="evenodd" d="M129.171 625.985L129.164 600.421L106.237 600.34C93.6273 600.296 82.0148 598.985 80.4308 597.43C76.2968 593.367 74.4289 579.63 77.5883 576.525C80.8878 573.282 150.424 573.105 153.708 576.331C156.625 579.198 156.824 667.216 153.921 671.049C152.195 673.331 149.846 671.866 140.503 662.683L129.176 651.551L129.171 625.985Z" fill="#DC6143"/>
<path fill-rule="evenodd" clip-rule="evenodd" d="M205.147 672.001C178.308 671.973 155.453 672.83 154.36 673.907C152.942 675.3 155.643 679.081 163.764 687.072L175.155 698.282L201.148 698.355L227.141 698.428L227.216 724.005L227.29 749.585L237.725 759.853C245.036 767.045 249.044 769.735 251.105 768.831C252.874 768.056 254.029 748.487 253.999 719.795L253.949 672.05L205.147 672.001Z" fill="#DC6143"/>
<path fill-rule="evenodd" clip-rule="evenodd" d="M93.3974 611.902C95.6961 609.443 114.336 609.336 116.61 611.771C119.075 614.41 118.043 630.992 115.227 634.009C113.055 636.333 111.009 634.996 102.039 625.39C94.3216 617.126 91.9614 613.442 93.3974 611.902Z" fill="#DC6143"/>
<path fill-rule="evenodd" clip-rule="evenodd" d="M193.397 711.826C194.484 710.735 200.043 709.915 205.752 710.007C216.117 710.172 216.134 710.181 216.635 716.537C218.172 735.988 215.139 737.636 202.033 724.47C194.321 716.724 191.962 713.268 193.397 711.826Z" fill="#DC6143"/>
<path fill-rule="evenodd" clip-rule="evenodd" d="M351.889 770.407C348.93 767.436 254.737 769.637 254.02 772.694C253.664 774.204 258.172 780.233 264.108 786.188L274.838 796.955L300.458 796.805L326.075 796.657L326.149 822.584L326.223 848.51L336.782 859.104C345.764 868.116 347.748 869.291 350.066 866.964C352.503 864.521 354.234 772.76 351.889 770.407Z" fill="#DC6143"/>
<path fill-rule="evenodd" clip-rule="evenodd" d="M290.183 809.442C293.489 806.353 301.119 805.171 308.482 806.605C315.705 808.013 315.807 808.174 315.981 818.466C316.249 834.226 313.751 834.789 300.103 822.037C292.936 815.341 289.092 810.462 290.183 809.442Z" fill="#DC6143"/>
<path fill-rule="evenodd" clip-rule="evenodd" d="M334.432 690.438C317.576 671.817 315.878 672.13 315.076 693.997C314.788 701.846 315.34 709.138 316.302 710.199C318.999 713.178 343.232 712.233 346.126 709.034C348.372 706.555 346.896 704.207 334.432 690.438Z" fill="#DC6143"/>
<path fill-rule="evenodd" clip-rule="evenodd" d="M412.299 791.828C412.899 784.35 414.295 777.363 415.4 776.297C416.867 774.869 421.714 778.467 433.573 789.776C445.676 801.32 449.213 805.688 447.654 807.175C445.102 809.608 415.597 809.608 413.045 807.175C412.033 806.21 411.697 799.304 412.299 791.828Z" fill="#DC6143"/>
<path fill-rule="evenodd" clip-rule="evenodd" d="M402.838 869.001C373.781 868.971 353.954 870.131 353.167 871.907C352.239 874 355.133 878.181 363.073 886.211L374.291 897.557L399.449 896.629L424.606 895.7L424.75 918.778C424.833 932.059 426.242 943.211 428.07 945.046C429.816 946.799 435.632 948.63 440.992 949.116L450.742 950L451.576 932.992C452.035 923.639 452.137 905.426 451.804 892.518L451.198 869.051L402.838 869.001Z" fill="#DC6143"/>
<path fill-rule="evenodd" clip-rule="evenodd" d="M390.411 907.977C391.537 906.795 397.296 905.908 403.21 906.008C413.92 906.185 413.965 906.214 414.547 913.064C416.345 934.239 413.091 936.082 399.358 921.664C391.368 913.277 388.925 909.537 390.411 907.977Z" fill="#DC6143"/>
<path fill-rule="evenodd" clip-rule="evenodd" d="M523.19 879.814C513.542 870.333 510.779 872.109 511.014 887.646C511.248 903.042 513.66 904.531 523.195 895.161L531 887.489L523.19 879.814Z" fill="#DC6143"/>
</svg>
