<svg width="1024" height="1024" viewBox="0 0 1024 1024" fill="none" xmlns="http://www.w3.org/2000/svg">
<path d="M507.084 921.734C506.728 920.808 506.601 912.826 506.802 903.997L507.166 887.944H511.038C514.348 887.944 515.319 888.786 517.733 893.749C519.286 896.941 521.278 901.947 522.161 904.873L523.766 910.193L526.454 902.209C530.334 890.686 533.009 887.054 537.254 887.544L540.722 887.944L541.083 905.125L541.443 922.307L537.856 921.895C534.946 921.561 534.186 920.754 533.83 917.618C533.234 912.373 535.887 904.217 535.194 901.608C534.5 899 533.169 901.608 533.169 901.608C532.179 909.154 526.788 921.397 524.238 921.888C521.79 922.359 518.043 915.35 514.711 904.068C513.021 898.345 513.004 898.421 513.481 909.442C513.963 920.564 513.139 923.418 509.449 923.418C508.503 923.418 507.439 922.66 507.084 921.734Z" fill="#DC6143"/>
<path fill-rule="evenodd" clip-rule="evenodd" d="M863.052 922.564C859.629 921.183 862.219 914.388 866.169 914.388C867.067 914.388 868.401 915.509 869.135 916.878C870.141 918.758 869.972 919.865 868.443 921.393C866.329 923.506 865.718 923.639 863.052 922.564ZM338.978 918.581C339.302 915.765 340.052 915.033 342.613 915.033C345.173 915.033 345.924 915.765 346.248 918.581C346.616 921.782 346.262 922.128 342.613 922.128C338.963 922.128 338.609 921.782 338.978 918.581ZM643.964 920.826C642.593 918.61 644.667 914.388 647.126 914.388C650.216 914.388 652.607 917.404 651.599 920.03C650.715 922.332 645.247 922.902 643.964 920.826ZM149.539 849.348C140.371 847.256 128.58 841.615 127.501 838.804C126.707 836.738 132.972 820.72 135.084 819.416C135.768 818.993 140.21 820.436 144.955 822.622C155.3 827.387 168.418 829.548 176.287 827.781C183.143 826.241 185.158 824.641 185.158 820.738C185.158 816.385 180.962 814.16 164.724 809.902C137.025 802.638 128.327 794.849 128.399 777.371C128.474 759.52 143.201 746.937 166.549 744.776C177.049 743.804 193.4 746.371 202.586 750.432C208.597 753.09 208.714 753.251 208.045 757.983C207.67 760.642 206.134 765.641 204.632 769.091C204.474 769.455 204.327 769.799 204.187 770.124C203.233 772.35 202.662 773.683 201.66 774.234C200.164 775.056 197.707 774.13 191.58 771.821C191.292 771.713 190.996 771.601 190.691 771.486C190.362 771.363 190.024 771.235 189.675 771.105C174.979 765.595 158.325 767.677 156.338 775.272C155.112 779.959 160.595 783.293 176.029 787.245C197.381 792.711 205.797 797.279 210.201 805.791C215.035 815.135 213.709 827.665 206.889 837.075C204.182 840.81 200.577 843.525 194.636 846.304C187.136 849.812 184.649 850.29 171.814 850.692C162.554 850.982 154.599 850.503 149.539 849.348ZM363.398 849.139C330.291 840.24 314.308 805.716 328.962 774.755C342.937 745.229 384.66 735.325 413.625 754.657C422.809 760.787 429.176 768.641 433.152 778.746C437.246 789.149 437.216 807.507 433.089 818.008C429.515 827.101 418.915 838.962 410.054 843.782C396.891 850.943 378.125 853.097 363.398 849.139ZM563.308 850.34C549.906 847.673 537.183 841.761 536.43 837.849C535.843 834.806 542.814 818.931 544.736 818.931C545.563 818.931 550.199 820.783 555.038 823.046C569.481 829.801 591.451 829.686 593.623 822.844C595.55 816.777 591.342 814.068 572.94 809.526C545.889 802.849 537.458 795.347 537.524 778.016C537.61 755.332 559.007 742.187 590.397 745.534C605.26 747.118 617.513 751.631 617.513 755.52C617.513 758.569 611.012 775.072 609.811 775.072C609.247 775.072 604.854 773.593 600.048 771.785C584.822 766.057 569.361 767.325 566.057 774.574C563.628 779.902 568.16 782.982 584.603 787.178C601.524 791.497 610.392 795.291 615.406 800.357C620.318 805.32 621.565 808.968 621.625 818.548C621.751 838.933 607.571 849.881 580.086 850.618C572.632 850.818 565.082 850.693 563.308 850.34ZM225.774 848.319C225.423 847.406 225.288 824.311 225.474 796.998L225.812 747.338L251.625 746.95C278.738 746.542 289.26 747.681 297.583 751.925C323.444 765.112 322.644 806.127 296.305 817.452C288.769 820.692 275.945 822.74 262.963 822.775L253.651 822.801L253.283 836.023L252.915 849.245L239.663 849.613C229.771 849.888 226.25 849.56 225.774 848.319ZM471.674 809.256V769.912H456.99C445.941 769.912 441.933 769.463 440.798 768.097C439.864 766.971 439.436 762.682 439.672 756.81L440.054 747.338L485.599 746.999L531.143 746.66L530.77 757.964L530.397 769.268L514.587 769.63L498.777 769.992V809.296V848.6H485.226H471.674V809.256ZM277.031 798.247C283.476 796.458 288.407 790.408 288.407 784.29C288.407 773.96 281.885 769.912 265.24 769.912H253.561V784.747V799.582L262.917 799.569C268.064 799.569 274.415 798.973 277.031 798.247ZM398.819 776.559C412.592 789.249 410.822 812.193 395.277 822.475C387.917 827.343 375.345 828.029 367.397 823.996C353.771 817.081 348.118 800.115 354.72 785.945C363.25 767.635 384.275 763.16 398.819 776.559Z" fill="#DC6143"/>
<path d="M636.529 849.117C636.008 848.596 635.582 825.329 635.582 797.413V746.656L675.268 746.997L714.955 747.338V758.303V769.268L690.433 769.327C676.946 769.359 665.185 769.504 664.298 769.649C663.216 769.826 662.685 772.461 662.685 777.653V785.393L670.751 785.562C675.188 785.655 685.496 786.091 693.66 786.53L708.502 787.327L708.885 796.888C709.157 803.666 708.781 806.758 707.594 807.511C706.674 808.095 696.166 808.581 684.244 808.592L662.567 808.611L662.949 817.319L663.33 826.026L689.788 826.671L716.245 827.316L716.626 837.523C716.86 843.802 716.474 848.06 715.623 848.586C713.699 849.774 637.697 850.284 636.529 849.117Z" fill="#DC6143"/>
<path fill-rule="evenodd" clip-rule="evenodd" d="M732.378 797.539C732.378 837.009 732.739 848.531 733.991 849.036C736.739 850.144 806.488 849.914 808.26 848.791C809.455 848.034 809.822 844.818 809.55 837.523L809.169 827.316L784.648 826.671L760.126 826.026L760.409 809.901C760.565 801.033 760.357 783.183 759.947 770.235L759.201 746.693H745.789H732.378V797.539Z" fill="#DC6143"/>
<path fill-rule="evenodd" clip-rule="evenodd" d="M819.446 848.293C819.1 847.394 818.97 824.311 819.156 796.998L819.494 747.338H833.046H846.597L846.938 787.004L847.28 826.671H871.724H896.169L896.953 830.863C897.385 833.169 897.556 838.248 897.334 842.15L896.931 849.245L858.502 849.587C828.412 849.854 819.937 849.574 819.446 848.293Z" fill="#DC6143"/>
<path fill-rule="evenodd" clip-rule="evenodd" d="M844.661 895.194V908.661V922.128H848.533H852.405V908.583V895.039L855.954 895.019C861.086 894.99 863.169 893.294 862.122 889.996C861.281 887.35 860.584 887.229 848.11 887.577C835.064 887.942 834.982 887.964 834.982 891.169C834.982 893.964 835.626 894.447 839.821 894.794L844.661 895.194Z" fill="#DC6143"/>
<path fill-rule="evenodd" clip-rule="evenodd" d="M808.416 921.854C808.357 920.94 808.087 918.742 807.816 916.968C807.545 915.194 807.664 907.772 808.081 900.475L808.839 887.206L820.62 887.575C832.227 887.939 832.4 887.991 832.4 891.169C832.4 894.253 832.019 894.41 823.689 894.775C815.453 895.136 814.977 895.326 814.977 898.261C814.977 901.168 815.49 901.39 823.044 901.749C830.232 902.092 831.154 902.443 831.514 904.972C831.889 907.607 831.332 907.839 823.783 908.197C817.059 908.516 815.569 908.999 815.192 910.978C814.456 914.833 817.204 916.323 825.049 916.323C832.03 916.323 832.4 916.486 832.4 919.548C832.4 922.729 832.237 922.778 820.462 923.144C811.436 923.424 808.498 923.11 808.416 921.854Z" fill="#DC6143"/>
<path fill-rule="evenodd" clip-rule="evenodd" d="M776.541 903.887C776.298 914.54 776.671 920.425 777.667 921.624L777.786 921.768C778.543 922.681 778.931 923.149 779.412 923.281C779.918 923.42 780.526 923.186 781.774 922.707L781.961 922.635C783.323 922.112 784.003 920.233 784.003 916.988C784.003 914.313 784.842 911.428 785.869 910.576C787.404 909.302 788.569 910.189 792.448 915.585C797.207 922.206 802.322 924.973 804.948 922.349C805.95 921.347 804.738 918.909 800.659 913.722C800.088 912.996 799.554 912.321 799.056 911.691C795.036 906.608 793.333 904.456 793.615 902.605C793.822 901.246 795.101 900.049 797.319 897.974C797.693 897.624 798.095 897.248 798.522 896.843C805.642 890.088 806.34 887.299 800.91 887.299C798.019 887.299 795.686 888.919 790.654 894.423L784.139 901.547L783.748 894.745C783.386 888.455 783.115 887.944 780.131 887.944H776.904L776.541 903.887Z" fill="#DC6143"/>
<path fill-rule="evenodd" clip-rule="evenodd" d="M745.884 921.829C745.508 920.851 745.365 912.826 745.565 903.997L745.929 887.944L753.896 887.562C758.869 887.324 763.6 887.907 766.488 889.113C774.125 892.302 775.595 901.072 769.574 907.521L766.953 910.329L769.915 915.596C772.051 919.396 772.485 921.256 771.471 922.269C769.102 924.637 765.468 922.431 761.577 916.264C758.798 911.858 757.178 910.479 755.124 910.772C752.913 911.088 752.258 912.284 751.737 916.957C751.272 921.134 750.461 922.87 748.829 923.179C747.585 923.415 746.259 922.808 745.884 921.829ZM755.221 894.674C762.429 893.297 767.383 898.234 763.095 902.521C761.448 904.166 754.041 904.652 752.597 903.208C752.124 902.736 751.737 900.772 751.737 898.844C751.737 896.061 752.455 895.202 755.221 894.674Z" fill="#DC6143"/>
<path fill-rule="evenodd" clip-rule="evenodd" d="M721.595 890.004C718.091 895.003 708.837 919.459 709.648 921.573C710.795 924.56 714.683 923.267 716.605 919.259C719.583 913.049 731.139 912.838 733.922 918.944C735.492 922.388 737.924 923.685 740.767 922.594C742.694 921.855 743.414 918.109 741.917 916.612C741.484 916.18 738.412 909.553 735.089 901.885C728.559 886.819 725.632 884.242 721.595 890.004ZM729.797 907.229C729.797 906.839 728.858 904.706 727.71 902.488L725.624 898.456L723.839 902.7L723.699 903.031L723.552 903.38C722.508 905.853 722.028 906.987 722.403 907.506C722.72 907.946 723.65 907.944 725.368 907.939L725.408 907.939L725.633 907.939L725.925 907.938C728.054 907.938 729.797 907.619 729.797 907.229Z" fill="#DC6143"/>
<path fill-rule="evenodd" clip-rule="evenodd" d="M672.617 922.522C671.73 921.065 671.19 909.126 671.477 897.296L671.719 887.299H675.655C679.32 887.299 679.934 888.031 684.591 897.941C687.341 903.794 689.636 907.555 689.69 906.298C689.744 905.04 691.512 900.211 693.619 895.566C697.131 887.825 697.75 887.154 701.04 887.532L704.63 887.944L704.993 904.609C705.192 913.774 704.854 921.775 704.24 922.388C703.627 923.001 702.157 923.131 700.974 922.677C699.253 922.017 698.808 920.008 698.755 912.638L698.687 903.423L695.037 912.453C692.394 918.99 690.665 921.592 688.774 921.879C686.569 922.214 685.588 920.652 682.489 911.87L678.818 901.465L678.173 912.106C677.654 920.664 677.109 922.827 675.389 923.154C674.213 923.378 672.966 923.093 672.617 922.522Z" fill="#DC6143"/>
<path fill-rule="evenodd" clip-rule="evenodd" d="M616.01 903.423C615.538 911.937 615.432 919.919 615.774 921.16C616.283 923.006 617.882 923.418 624.537 923.418C636.971 923.418 640.956 922.327 640.489 919.051C640.149 916.673 639.021 916.24 631.71 915.678C624.225 915.103 623.277 914.721 622.909 912.131C622.538 909.522 623.06 909.215 628.071 909.091C638.621 908.832 638.787 908.772 639.211 905.1C639.606 901.674 639.477 901.609 631.467 901.23C624.31 900.89 623.321 900.53 623.321 898.264C623.321 896.014 624.397 895.601 631.71 895.039C639.626 894.43 640.099 894.212 640.099 891.169C640.099 887.968 640.013 887.944 628.484 887.944H616.868L616.01 903.423Z" fill="#DC6143"/>
<path fill-rule="evenodd" clip-rule="evenodd" d="M582.022 922.431C580.066 920.994 579.819 889.557 581.754 888.328C584.104 886.835 593.977 887.104 599.694 888.816C607.568 891.174 611.06 896.257 611.06 905.358C611.06 914.46 607.568 919.543 599.694 921.901C594.053 923.59 584.011 923.891 582.022 922.431ZM592.767 895.039C602.407 895.039 607.213 905.562 600.726 912.464C598.527 914.803 596.36 915.678 592.767 915.678H587.829V905.358V895.039H592.767Z" fill="#DC6143"/>
<path fill-rule="evenodd" clip-rule="evenodd" d="M547.914 910.128C545.603 915.945 544.09 921.314 544.552 922.061C546.103 924.569 549.214 923.448 551.43 919.582C555.137 913.112 567.191 912.75 570.051 919.024C571.046 921.208 572.518 922.128 575.016 922.128C575.098 922.128 575.179 922.128 575.259 922.129L575.478 922.13L575.518 922.13C576.613 922.138 577.398 922.144 577.793 921.754C578.796 920.766 577.295 917.236 571.988 904.757L571.939 904.643C571.646 903.955 571.342 903.24 571.027 902.497C561.711 880.575 559.343 881.357 547.914 910.128ZM564.93 906.326C564.228 905.439 563.141 903.144 562.513 901.226L561.372 897.738L559.209 902.838L557.046 907.938H561.626C565.109 907.938 565.9 907.552 564.93 906.326Z" fill="#DC6143"/>
<path fill-rule="evenodd" clip-rule="evenodd" d="M472.657 922.622C471.401 920.497 470.173 896.828 471.07 892.05L471.961 887.299L479.884 887.361C494.075 887.472 502.079 894.001 501.912 905.329C501.813 912.061 499.314 917.002 494.37 920.239C490.917 922.5 473.701 924.39 472.657 922.622ZM493.594 901.439C495.495 906.026 493.581 912.335 489.651 914.437C488.375 915.12 485.26 915.678 482.729 915.678H478.127V905.358V895.039H482.729C488.818 895.039 491.627 896.694 493.594 901.439Z" fill="#DC6143"/>
<path fill-rule="evenodd" clip-rule="evenodd" d="M446.705 906.826C449.298 910.631 453.122 915.92 455.202 918.581C457.283 921.241 459.662 923.408 460.49 923.398C464.838 923.341 465.304 921.376 464.939 904.612L464.576 887.944H461.349C458.213 887.944 458.112 888.228 457.743 898.1L457.363 908.257L449.491 897.71C442.753 888.682 441.135 887.22 438.255 887.554L434.892 887.944L434.516 902.134C434.051 919.702 434.57 922.128 438.788 922.128C441.949 922.128 441.99 921.986 441.99 911.019V899.909L446.705 906.826Z" fill="#DC6143"/>
<path fill-rule="evenodd" clip-rule="evenodd" d="M400.045 922.431C397.826 920.801 398.221 919.311 405.082 903.423C410.883 889.99 412.196 887.893 415.012 887.56C418.705 887.123 418.719 887.145 426.466 905.258C429.326 911.943 431.665 918.474 431.665 919.771C431.665 923.736 426.19 922.696 423.659 918.25C421.725 914.854 420.756 914.388 415.622 914.388C410.661 914.388 409.445 914.921 407.526 917.936C405.331 921.383 403.298 923.378 401.981 923.378C401.626 923.378 400.755 922.952 400.045 922.431ZM412.579 904.391C414.987 898.726 415.562 898.62 417.848 903.411L420.008 907.938H415.539C411.159 907.938 411.101 907.868 412.579 904.391Z" fill="#DC6143"/>
<path fill-rule="evenodd" clip-rule="evenodd" d="M366.125 903.997C365.924 912.826 366.051 920.808 366.407 921.734C367.124 923.601 369.545 923.897 371.891 922.406C372.733 921.871 373.604 918.542 373.827 915.008L374.233 908.583L381.009 908.193L387.784 907.804V914.163C387.784 920.963 389.841 924.033 393.465 922.643C395.328 921.928 395.555 919.665 395.242 904.884C394.893 888.423 394.8 887.932 391.979 887.532C389.341 887.157 389.075 887.645 389.075 892.856C389.075 899.963 387.082 901.768 379.813 901.245L374.233 900.844L373.588 894.394C373.002 888.546 372.641 887.944 369.716 887.944H366.489L366.125 903.997Z" fill="#DC6143"/>
<path fill-rule="evenodd" clip-rule="evenodd" d="M141.56 922.33C140.323 921.545 139.998 917.081 140.269 904.612L140.632 887.944L152.468 887.574C163.394 887.233 164.368 887.406 165.135 889.82C166.433 893.907 164.837 895.122 159.329 894.241C151.817 893.041 147.73 894.445 147.73 898.227C147.73 901.175 148.218 901.389 155.784 901.749C162.468 902.068 163.916 902.546 164.3 904.559C164.948 907.956 162.357 909.186 154.506 909.209L147.73 909.228V915.54C147.73 920.106 147.165 922.069 145.689 922.635L145.535 922.694C145.415 922.74 145.303 922.784 145.197 922.825C144.267 923.187 143.822 923.359 143.403 923.31C143.018 923.265 142.656 923.032 141.961 922.586L141.942 922.574L141.783 922.472C141.712 922.426 141.637 922.379 141.56 922.33Z" fill="#DC6143"/>
<path fill-rule="evenodd" clip-rule="evenodd" d="M169.025 887.944L168.665 905.036L168.305 922.128H172.252H176.199L175.839 905.036L175.478 887.944H172.252H169.025Z" fill="#DC6143"/>
<path fill-rule="evenodd" clip-rule="evenodd" d="M183.039 921.854C182.365 920.941 181.636 913.14 181.418 904.52C181.041 889.573 181.148 888.807 183.724 887.989C185.21 887.518 187.011 887.495 187.728 887.937C188.468 888.394 189.03 894.522 189.03 902.148V915.555L197.096 915.939C204.737 916.303 205.163 916.493 205.163 919.548C205.163 922.692 204.9 922.782 194.714 923.144C187.321 923.407 183.906 923.03 183.039 921.854Z" fill="#DC6143"/>
<path fill-rule="evenodd" clip-rule="evenodd" d="M211.766 887.299C207.713 887.299 207.418 888.895 208.123 906.971C208.705 921.898 208.76 922.128 211.778 922.128H214.842V904.713V887.299H211.766Z" fill="#DC6143"/>
<path fill-rule="evenodd" clip-rule="evenodd" d="M221.58 905.036L221.94 887.944H232.704C242.459 887.944 243.699 888.229 245.933 890.989C247.492 892.915 248.398 896.043 248.398 899.497C248.398 906.871 245.17 909.668 235.684 910.513L228.394 911.163L227.997 916.646C227.645 921.51 227.24 922.128 224.41 922.128H221.22L221.58 905.036ZM234.242 895.039C239.893 895.039 242.117 897.579 239.761 901.341C239.044 902.487 236.338 903.604 233.748 903.824C229.136 904.216 229.039 904.129 229.039 899.631C229.039 895.127 229.139 895.039 234.242 895.039Z" fill="#DC6143"/>
<path fill-rule="evenodd" clip-rule="evenodd" d="M252.27 905.103C252.27 914.23 252.657 922.085 253.13 922.558C254.514 923.941 257.197 923.55 258.288 921.805C258.842 920.919 259.327 913.335 259.364 904.953C259.435 889.295 258.486 886.124 254.222 887.759C252.62 888.374 252.27 891.48 252.27 905.103Z" fill="#DC6143"/>
<path fill-rule="evenodd" clip-rule="evenodd" d="M266.091 922.612C265.588 922.109 265.176 914.31 265.176 905.281C265.176 891.252 265.484 888.747 267.294 888.053C270.474 886.833 274.596 890.158 281.521 899.526L287.762 907.968L288.407 897.969C288.954 889.493 289.422 887.898 291.479 887.507C295.395 886.762 296.11 889.632 296.131 906.188C296.148 919.254 295.814 921.981 294.121 922.63C290.717 923.936 287.535 921.242 280.399 911.011L273.565 901.213L272.92 911.993C272.344 921.611 271.99 922.814 269.64 923.15C268.191 923.357 266.594 923.115 266.091 922.612Z" fill="#DC6143"/>
<path fill-rule="evenodd" clip-rule="evenodd" d="M301.572 898.284C298.417 907.853 302.435 917.908 310.883 921.584C318.469 924.885 326.989 922.763 332.071 916.305C335.964 911.359 336.02 899.429 332.174 894.542C323.417 883.414 305.763 885.573 301.572 898.284ZM326.313 900.224C328.535 904.356 328.572 905.085 326.775 909.376C323.11 918.126 312.737 918.108 309.106 909.346C307.067 904.426 308.664 899.317 313.33 895.835C317.94 892.395 323.028 894.115 326.313 900.224Z" fill="#DC6143"/>
<path fill-rule="evenodd" clip-rule="evenodd" d="M436.907 384.412C437.017 372.279 438.497 371.933 448.314 381.75C455.146 388.582 456.288 390.203 455.105 391.386C453.393 393.099 439.217 394.544 437.821 393.149C437.279 392.607 436.868 388.675 436.907 384.412Z" fill="#DC6143"/>
<path fill-rule="evenodd" clip-rule="evenodd" d="M391.277 324.713C380.959 314.395 379.525 314.662 379.413 326.918C379.374 331.181 379.863 335.191 380.5 335.827C381.711 337.039 397.675 335.654 399.116 334.213C399.573 333.756 396.045 329.481 391.277 324.713Z" fill="#DC6143"/>
<path fill-rule="evenodd" clip-rule="evenodd" d="M386.295 270.737C385.993 269.389 387.73 267.094 391.981 263.226L398.102 257.655L514.006 373.096L629.91 488.537L623.651 494.795L617.393 501.054L611.197 496.03C601.999 488.572 386.802 273.001 386.295 270.737Z" fill="#DC6143"/>
<path fill-rule="evenodd" clip-rule="evenodd" d="M473.865 182.915C470.07 185.659 453.168 201.691 436.191 218.668L405.399 249.446L521.35 365.397L637.301 481.347L671.443 446.623C709.126 408.3 709.811 407.399 712.605 392.466C713.316 388.662 714.007 344.073 714.14 293.378L714.147 290.767L714.159 286.355C714.369 208.022 714.404 194.993 708.012 187.312C706.736 185.78 705.205 184.46 703.368 182.877C703.1 182.646 702.825 182.409 702.543 182.165C697.913 178.153 693.961 175.923 688.757 174.386C683.424 172.811 656.303 172.307 587.987 172.513L584.155 172.524C503.628 172.766 490.416 172.805 480.407 178.487C478.443 179.602 476.602 180.934 474.4 182.528L473.865 182.915ZM647.084 287.724C637.849 297.222 623.918 300.091 610.565 295.246C597.074 290.35 588.949 277.846 589.215 262.385C589.372 253.231 592.355 246.385 599.178 239.562C612.044 226.682 634.617 226.913 647.763 240.059C653.141 245.436 657.002 256.107 656.657 264.637C656.243 274.876 653.764 280.855 647.084 287.724Z" fill="#DC6143"/>
<path d="M494.087 441.314C495.117 429.756 496.139 429.575 505.808 439.244C512.689 446.125 513.787 447.692 512.579 448.9C510.485 450.994 496.737 452.065 494.946 450.273C494.109 449.436 493.722 445.404 494.087 441.314Z" fill="#DC6143"/>
<path fill-rule="evenodd" clip-rule="evenodd" d="M563.758 497.195C553.575 487.011 552.538 487.151 551.626 498.831C551.308 502.914 551.65 506.884 552.387 507.654C553.818 509.148 569.832 508.46 571.457 506.835C572.075 506.217 569.279 502.716 563.758 497.195Z" fill="#DC6143"/>
<path fill-rule="evenodd" clip-rule="evenodd" d="M506.21 538.773C505.065 537.156 504.549 535.414 505.063 534.9C506.825 533.138 524.3 532.532 525.944 534.176C527.646 535.878 526.968 553.15 525.127 554.991C524.554 555.564 522.747 554.701 521.111 553.074C519.471 551.452 515.922 548.225 513.214 545.914C510.506 543.602 507.354 540.389 506.21 538.773Z" fill="#DC6143"/>
<path fill-rule="evenodd" clip-rule="evenodd" d="M313.693 341.231C312.124 342.757 310.841 344.552 310.841 345.221C310.841 345.89 312.519 348.114 314.568 350.163C318.123 353.724 319.285 353.885 340.273 353.724L362.254 353.556L361.741 374.275L361.228 394.993L369.561 403.327L377.895 411.66L398.572 411.189L419.249 410.718L418.953 431.597L418.656 452.475L427.023 460.815L435.389 469.154L456.305 468.678L477.221 468.201L476.698 489.073L476.174 509.946L484.527 518.298L492.88 526.651L513.7 526.177L534.521 525.702L533.941 546.418L533.361 567.133L537.849 571.621L542.337 576.109L546.08 572.366C549.547 568.899 549.857 567.361 550.284 551.487L550.746 534.35L559.311 542.003L567.877 549.657L588.4 529.134L608.923 508.611L493.479 393.166L378.035 277.722L357.512 298.246L336.989 318.769L345.366 328.058L353.743 337.347L335.144 337.903C320.055 338.354 316.006 338.982 313.693 341.231ZM393.582 342.525C403.026 341.936 412.5 341.352 414.634 341.229L418.514 341.004L396.377 318.867L374.24 296.731L373.294 320.186C372.598 337.421 372.886 343.636 374.379 343.619C375.496 343.606 384.138 343.114 393.582 342.525ZM453.302 399.508L475.802 398.292L453.806 376.297L431.811 354.301L431.636 359.144C431.54 361.807 431.067 371.964 430.584 381.716C430.101 391.467 429.953 399.734 430.254 400.085C430.556 400.436 440.927 400.177 453.302 399.508ZM502.059 485.138C506.675 489.466 513.973 496.764 518.278 501.357L526.103 509.707L508.814 510.288L491.525 510.87L492.595 494.07L493.666 477.27L502.059 485.138ZM452.775 452.798L469.444 452.136L452.783 435.475L436.121 418.813L435.819 424.44C435.206 435.852 435.066 452.419 435.578 452.931C435.869 453.222 443.607 453.162 452.775 452.798ZM526.904 456.235L533.554 456.044L511.312 433.802L489.07 411.561L488.802 424.519C488.655 431.646 488.178 442.169 487.742 447.905L486.95 458.332L503.602 457.379C512.761 456.855 523.246 456.341 526.904 456.235ZM561.748 514.795C570.565 514.332 580.765 513.859 584.414 513.745L591.048 513.538L568.915 491.406L546.783 469.273L545.762 491.83C545.201 504.236 544.961 514.668 545.229 515.012C545.496 515.356 552.93 515.259 561.748 514.795ZM403.288 386.367C398.985 381.776 391.615 374.406 386.911 369.991L378.358 361.962L377.596 378.85L376.833 395.738L393.972 395.226L411.112 394.716L403.288 386.367Z" fill="#DC6143"/>
<path fill-rule="evenodd" clip-rule="evenodd" d="M335.619 368.05C333.233 365.256 332.079 362.949 332.751 362.318C334.448 360.725 352.197 360.429 353.736 361.968C355.597 363.829 354.53 380.624 352.417 382.737C350.891 384.263 350.051 383.785 345.152 378.595C342.105 375.367 337.815 370.622 335.619 368.05Z" fill="#DC6143"/>
<path fill-rule="evenodd" clip-rule="evenodd" d="M393.113 425.544C390.497 422.481 389.541 420.447 390.339 419.648C392.274 417.713 409.085 417.316 410.93 419.162C412.957 421.189 412.053 438.089 409.797 440.345C408.41 441.732 407.411 441.137 402.646 436.089C399.599 432.861 395.309 428.116 393.113 425.544Z" fill="#DC6143"/>
<path fill-rule="evenodd" clip-rule="evenodd" d="M447.736 477.239C447.137 477.838 447.172 479.24 447.813 480.356C448.454 481.472 452.752 485.999 457.364 490.417C464.1 496.869 466.081 498.224 467.435 497.307C469.589 495.85 470.548 478.78 468.587 476.819C466.942 475.174 449.449 475.526 447.736 477.239Z" fill="#DC6143"/>
<path fill-rule="evenodd" clip-rule="evenodd" d="M290.689 425.365C273.693 408.003 261.829 395.156 261.829 394.114C261.828 392.075 319.612 391.694 321.637 393.719C322.326 394.408 322.882 407.266 322.873 422.294L322.857 449.617L350.306 449.727C365.403 449.787 378.347 450.428 379.069 451.151C379.792 451.874 380.376 464.772 380.367 479.814L380.351 507.163L407.745 507.191C422.811 507.207 435.754 507.836 436.507 508.589C437.261 509.342 437.87 522.266 437.861 537.308L437.845 564.657L465.239 564.685C480.305 564.701 493.248 565.33 494.001 566.083C495.921 568.003 495.691 622.755 493.755 624.691C492.261 626.185 487.583 621.691 412.911 547.018C369.319 503.426 330.479 464.854 326.601 461.303C322.722 457.752 306.562 441.58 290.689 425.365ZM484.457 589.872L484.259 575.576L470.293 575.708L456.327 575.84L470.491 590.004L484.656 604.169L484.457 589.872ZM426.757 517.993L426.959 532.334L427.162 546.675L413.215 532.728L399.268 518.781L413.013 518.387L426.757 517.993ZM369.212 460.88C369.59 461.02 369.74 467.339 369.548 474.922L369.197 488.71L355.603 475.116L342.009 461.522L355.268 461.074C362.56 460.827 368.835 460.74 369.212 460.88ZM311.905 403.171L311.909 417.298L311.912 431.425L297.782 417.295L283.651 403.164L297.778 403.168L311.905 403.171Z" fill="#DC6143"/>
<path fill-rule="evenodd" clip-rule="evenodd" d="M274.944 379.901C272.613 382.232 270.707 384.686 270.707 385.355C270.707 386.024 271.046 386.911 271.461 387.325C271.875 387.74 284.667 387.95 299.887 387.792L327.559 387.506L327.462 415.367C327.408 430.691 327.797 443.661 328.326 444.19C328.855 444.719 341.891 445.145 357.296 445.137L385.303 445.123L385.101 472.943C384.989 488.243 385.312 501.176 385.818 501.683C386.324 502.189 399.248 502.616 414.538 502.631L442.338 502.66L442.45 530.697C442.546 554.652 442.943 558.844 445.173 559.486C446.609 559.9 459.543 560.209 473.914 560.173L500.045 560.109L499.944 586.996C499.888 601.784 500.374 614.414 501.023 615.063C501.836 615.877 503.673 614.774 506.933 611.513C510.534 607.912 511.693 605.806 511.79 602.688L511.917 598.593L513.959 600.635C515.715 602.391 516.379 602.219 518.679 599.426C521.341 596.196 521.326 596.141 516.177 590.435C512.834 586.731 510.935 583.537 510.824 581.434C510.662 578.334 511.028 578.504 518.286 584.895L525.919 591.615L530.079 588.016L534.24 584.417L418.284 468.923L302.328 353.43L298.679 357.079L295.03 360.727L302.718 368.94C310.291 377.032 310.353 377.154 306.911 377.153C304.296 377.152 301.787 375.659 296.943 371.22L290.47 365.288L287.742 368.015C285.427 370.33 285.356 371.23 287.269 373.964L289.524 377.185L284.352 376.425C279.812 375.757 278.664 376.182 274.944 379.901ZM364.14 434.398L368.285 434.894L353.419 420.028C338.61 405.219 338.55 405.177 338.38 408.638C338.226 411.744 339.367 413.273 349.102 423.008C358.614 432.52 360.521 433.965 364.14 434.398ZM410.475 477.084C424.845 491.454 424.889 491.512 421.427 491.684C418.313 491.839 416.792 490.698 406.826 480.732C396.861 470.767 395.72 469.245 395.874 466.132C396.044 462.671 396.104 462.713 410.475 477.084ZM467.9 534.509C481.895 548.504 482.123 548.804 479.377 549.635C476.807 550.412 475.662 549.562 465.459 539.304C455.767 529.559 454.296 527.621 453.982 524.178L453.621 520.23L467.9 534.509ZM458.849 549.173C462.274 549.003 462.267 548.943 458.391 545.067C454.516 541.192 454.456 541.185 454.286 544.61C454.191 546.522 454.397 548.37 454.743 548.716C455.089 549.062 456.937 549.268 458.849 549.173ZM404.536 491.212L400.272 491.508C397.927 491.672 395.986 491.769 395.961 491.725C395.935 491.681 396.039 489.733 396.193 487.397L396.473 483.149L400.504 487.18L404.536 491.212ZM347.372 434.048L342.949 434.185C340.515 434.26 338.438 434.236 338.333 434.13C338.227 434.024 338.494 432.239 338.926 430.162L339.711 426.387L343.542 430.218L347.372 434.048Z" fill="#DC6143"/>
<path fill-rule="evenodd" clip-rule="evenodd" d="M251.961 403.214C249.846 405.009 248.267 407.125 248.454 407.916C248.739 409.122 444.393 605.188 470.87 630.799L479.505 639.152L483.101 634.995L486.697 630.837L371.253 515.393L255.808 399.949L251.961 403.214Z" fill="#DC6143"/>
<path fill-rule="evenodd" clip-rule="evenodd" d="M233.917 420.928L239.39 415.455L244.785 420.85C251.382 427.447 250.532 428.579 238.9 428.685C227.904 428.785 227.182 427.663 233.917 420.928Z" fill="#DC6143"/>
<path fill-rule="evenodd" clip-rule="evenodd" d="M263.807 478.48L263.904 450.687L236.512 450.68C218.503 450.675 209.121 450.056 209.121 448.873C209.12 447.883 211.229 444.402 213.806 441.138L218.492 435.203L238.377 435.177L258.263 435.152L268.849 445.738L279.435 456.324L279.334 474.48L279.232 492.636L297.526 492.672L315.819 492.708L326.625 503.514L337.431 514.32L337.096 532.188L336.761 550.056L354.749 549.841L372.737 549.626L383.765 560.654L394.794 571.683L394.454 589.636L394.114 607.589L412.11 607.292L430.106 606.994L441.409 618.298L452.712 629.601L452.683 647.391L452.654 665.182L446.058 671.779C440.164 677.672 439.274 678.189 437.711 676.625C436.648 675.563 436.187 664.71 436.537 648.988L437.114 623.1L408.924 623.198C393.42 623.253 380.298 622.861 379.765 622.328C379.232 621.794 378.769 608.813 378.738 593.481L378.681 565.603L351.057 565.799C335.863 565.907 322.837 565.399 322.108 564.671C321.38 563.943 320.916 550.96 321.077 535.82L321.371 508.293L293.48 508.223C278.14 508.184 265.167 507.73 264.65 507.213C264.133 506.695 263.753 493.766 263.807 478.48Z" fill="#DC6143"/>
<path fill-rule="evenodd" clip-rule="evenodd" d="M298.252 474.318C287.935 464 286.5 464.267 286.389 476.523C286.35 480.787 286.763 484.72 287.307 485.264C288.891 486.848 303.646 486.264 305.361 484.55C306.725 483.185 305.828 481.894 298.252 474.318Z" fill="#DC6143"/>
<path fill-rule="evenodd" clip-rule="evenodd" d="M236.203 493.934L236.199 478.91L222.955 478.862C215.671 478.836 208.963 478.066 208.048 477.152C205.66 474.764 204.581 466.691 206.406 464.866C208.312 462.96 248.48 462.856 250.377 464.752C252.062 466.437 252.177 518.165 250.5 520.418C249.503 521.759 248.146 520.898 242.749 515.501L236.206 508.959L236.203 493.934Z" fill="#DC6143"/>
<path fill-rule="evenodd" clip-rule="evenodd" d="M280.929 520.845C265.386 520.829 252.15 521.333 251.517 521.967C250.696 522.787 252.26 525.012 256.963 529.715L263.56 536.312L278.613 536.355L293.666 536.398L293.709 551.451L293.752 566.505L299.795 572.548C304.029 576.781 306.35 578.364 307.544 577.832C308.568 577.376 309.237 565.859 309.22 548.973L309.191 520.874L280.929 520.845Z" fill="#DC6143"/>
<path fill-rule="evenodd" clip-rule="evenodd" d="M215.246 486.443C216.629 485.061 227.844 485.001 229.212 486.369C230.695 487.852 230.074 497.168 228.38 498.863C227.073 500.169 225.842 499.418 220.445 494.021C215.802 489.378 214.382 487.308 215.246 486.443Z" fill="#DC6143"/>
<path fill-rule="evenodd" clip-rule="evenodd" d="M273.457 543.831C274.111 543.177 277.458 542.686 280.895 542.741C287.135 542.84 287.145 542.845 287.447 546.654C288.372 558.31 286.546 559.298 278.656 551.408C274.013 546.766 272.593 544.695 273.457 543.831Z" fill="#DC6143"/>
<path fill-rule="evenodd" clip-rule="evenodd" d="M366.173 578.725C364.452 577.003 309.67 578.279 309.253 580.051C309.046 580.926 311.668 584.421 315.12 587.873L321.361 594.114L336.261 594.027L351.16 593.941L351.203 608.97L351.246 623.998L357.387 630.139C362.611 635.363 363.765 636.044 365.113 634.695C366.53 633.279 367.537 580.089 366.173 578.725Z" fill="#DC6143"/>
<path fill-rule="evenodd" clip-rule="evenodd" d="M330.734 601.542C332.539 599.737 336.705 599.046 340.725 599.884C344.669 600.707 344.725 600.801 344.82 606.815C344.966 616.025 343.602 616.354 336.15 608.902C332.237 604.989 330.138 602.138 330.734 601.542Z" fill="#DC6143"/>
<path fill-rule="evenodd" clip-rule="evenodd" d="M355.746 531.812C345.501 521.567 344.469 521.739 343.982 533.77C343.807 538.088 344.142 542.1 344.727 542.684C346.366 544.323 361.095 543.803 362.854 542.043C364.219 540.679 363.322 539.387 355.746 531.812Z" fill="#DC6143"/>
<path fill-rule="evenodd" clip-rule="evenodd" d="M401.685 590.977C402.024 586.55 402.812 582.413 403.436 581.782C404.264 580.937 407.001 583.067 413.697 589.762C420.531 596.597 422.528 599.183 421.648 600.063C420.207 601.504 403.547 601.504 402.106 600.063C401.535 599.492 401.345 595.403 401.685 590.977Z" fill="#DC6143"/>
<path fill-rule="evenodd" clip-rule="evenodd" d="M395.975 635.832C379.154 635.815 367.676 636.484 367.22 637.508C366.683 638.715 368.358 641.126 372.955 645.757L379.449 652.3L394.013 651.765L408.577 651.229L408.66 664.538C408.708 672.197 409.524 678.628 410.582 679.686C411.593 680.697 414.96 681.753 418.063 682.033L423.707 682.543L424.19 672.735C424.456 667.341 424.515 656.838 424.322 649.394L423.971 635.861L395.975 635.832Z" fill="#DC6143"/>
<path fill-rule="evenodd" clip-rule="evenodd" d="M388.445 658.819C389.099 658.165 392.446 657.674 395.883 657.729C402.107 657.827 402.133 657.843 402.471 661.635C403.516 673.357 401.625 674.377 393.644 666.396C389.001 661.753 387.581 659.683 388.445 658.819Z" fill="#DC6143"/>
<path fill-rule="evenodd" clip-rule="evenodd" d="M466.627 642.693C460.99 637.056 459.376 638.112 459.513 647.349C459.65 656.503 461.059 657.388 466.63 651.817L471.19 647.256L466.627 642.693Z" fill="#DC6143"/>
<path fill-rule="evenodd" clip-rule="evenodd" d="M436.907 384.412C437.017 372.279 438.497 371.933 448.314 381.75C455.146 388.582 456.288 390.203 455.105 391.386C453.393 393.099 439.217 394.544 437.821 393.149C437.279 392.607 436.868 388.675 436.907 384.412Z" fill="#DC6143"/>
<path fill-rule="evenodd" clip-rule="evenodd" d="M391.277 324.713C380.959 314.395 379.525 314.662 379.413 326.918C379.374 331.181 379.863 335.191 380.5 335.827C381.711 337.039 397.675 335.654 399.116 334.213C399.573 333.756 396.045 329.481 391.277 324.713Z" fill="#DC6143"/>
<path fill-rule="evenodd" clip-rule="evenodd" d="M386.295 270.737C385.993 269.389 387.73 267.094 391.981 263.226L398.102 257.655L514.006 373.096L629.91 488.537L623.651 494.795L617.393 501.054L611.197 496.03C601.999 488.572 386.802 273.001 386.295 270.737Z" fill="#DC6143"/>
<path fill-rule="evenodd" clip-rule="evenodd" d="M473.865 182.915C470.07 185.659 453.168 201.691 436.191 218.668L405.399 249.446L521.35 365.397L637.301 481.347L671.443 446.623C709.126 408.3 709.811 407.399 712.605 392.466C713.316 388.662 714.007 344.073 714.14 293.378L714.147 290.767L714.159 286.355C714.369 208.022 714.404 194.993 708.012 187.312C706.736 185.78 705.205 184.46 703.368 182.877C703.1 182.646 702.825 182.409 702.543 182.165C697.913 178.153 693.961 175.923 688.757 174.386C683.424 172.811 656.303 172.307 587.987 172.513L584.156 172.524C503.629 172.766 490.416 172.805 480.407 178.487C478.443 179.602 476.602 180.934 474.4 182.528L473.865 182.915ZM647.084 287.724C637.849 297.222 623.918 300.091 610.565 295.246C597.074 290.35 588.949 277.846 589.215 262.385C589.372 253.231 592.355 246.385 599.178 239.562C612.044 226.682 634.617 226.913 647.763 240.059C653.141 245.436 657.002 256.107 656.657 264.637C656.243 274.876 653.764 280.855 647.084 287.724Z" fill="#DC6143"/>
<path d="M494.087 441.314C495.117 429.756 496.139 429.575 505.808 439.244C512.689 446.125 513.787 447.692 512.579 448.9C510.485 450.994 496.737 452.065 494.946 450.273C494.109 449.436 493.722 445.404 494.087 441.314Z" fill="#DC6143"/>
<path fill-rule="evenodd" clip-rule="evenodd" d="M563.758 497.195C553.575 487.011 552.538 487.151 551.626 498.831C551.308 502.914 551.65 506.884 552.387 507.654C553.818 509.148 569.832 508.46 571.457 506.835C572.075 506.217 569.279 502.716 563.758 497.195Z" fill="#DC6143"/>
<path fill-rule="evenodd" clip-rule="evenodd" d="M506.21 538.773C505.065 537.156 504.549 535.414 505.063 534.9C506.825 533.138 524.3 532.532 525.944 534.176C527.646 535.878 526.968 553.15 525.127 554.991C524.554 555.564 522.747 554.701 521.111 553.074C519.471 551.452 515.922 548.225 513.214 545.914C510.506 543.602 507.354 540.389 506.21 538.773Z" fill="#DC6143"/>
<path fill-rule="evenodd" clip-rule="evenodd" d="M313.693 341.231C312.124 342.757 310.841 344.552 310.841 345.221C310.841 345.89 312.519 348.114 314.568 350.163C318.123 353.724 319.285 353.885 340.273 353.724L362.254 353.556L361.741 374.275L361.228 394.993L369.561 403.327L377.895 411.66L398.572 411.189L419.249 410.718L418.953 431.597L418.656 452.475L427.023 460.815L435.389 469.154L456.305 468.678L477.221 468.201L476.698 489.073L476.174 509.946L484.527 518.298L492.88 526.651L513.7 526.177L534.521 525.702L533.941 546.418L533.361 567.133L537.849 571.621L542.337 576.109L546.08 572.366C549.547 568.899 549.857 567.361 550.284 551.487L550.746 534.35L559.311 542.003L567.877 549.657L588.4 529.134L608.923 508.611L493.479 393.166L378.035 277.722L357.512 298.246L336.989 318.769L345.366 328.058L353.743 337.347L335.144 337.903C320.055 338.354 316.006 338.982 313.693 341.231ZM393.582 342.525C403.026 341.936 412.5 341.352 414.634 341.229L418.514 341.004L396.377 318.867L374.24 296.731L373.294 320.186C372.598 337.421 372.886 343.636 374.379 343.619C375.496 343.606 384.138 343.114 393.582 342.525ZM453.302 399.508L475.802 398.292L453.806 376.297L431.811 354.301L431.636 359.144C431.54 361.807 431.067 371.964 430.584 381.716C430.101 391.467 429.953 399.734 430.254 400.085C430.556 400.436 440.927 400.177 453.302 399.508ZM502.059 485.138C506.675 489.466 513.973 496.764 518.278 501.357L526.103 509.707L508.814 510.288L491.525 510.87L492.595 494.07L493.666 477.27L502.059 485.138ZM452.775 452.798L469.444 452.136L452.783 435.475L436.121 418.813L435.819 424.44C435.206 435.852 435.066 452.419 435.578 452.931C435.869 453.222 443.607 453.162 452.775 452.798ZM526.904 456.235L533.554 456.044L511.312 433.802L489.07 411.561L488.802 424.519C488.655 431.646 488.178 442.169 487.742 447.905L486.95 458.332L503.602 457.379C512.761 456.855 523.246 456.341 526.904 456.235ZM561.748 514.795C570.565 514.332 580.765 513.859 584.414 513.745L591.048 513.538L568.915 491.406L546.783 469.273L545.762 491.83C545.201 504.236 544.961 514.668 545.229 515.012C545.496 515.356 552.93 515.259 561.748 514.795ZM403.288 386.367C398.985 381.776 391.615 374.406 386.911 369.991L378.358 361.962L377.596 378.85L376.833 395.738L393.972 395.226L411.112 394.716L403.288 386.367Z" fill="#DC6143"/>
<path fill-rule="evenodd" clip-rule="evenodd" d="M335.619 368.05C333.233 365.256 332.079 362.949 332.751 362.318C334.448 360.725 352.197 360.429 353.736 361.968C355.597 363.829 354.53 380.624 352.417 382.737C350.891 384.263 350.051 383.785 345.152 378.595C342.105 375.367 337.815 370.622 335.619 368.05Z" fill="#DC6143"/>
<path fill-rule="evenodd" clip-rule="evenodd" d="M393.113 425.544C390.497 422.481 389.541 420.447 390.339 419.648C392.274 417.713 409.085 417.316 410.93 419.162C412.957 421.189 412.053 438.089 409.797 440.345C408.41 441.732 407.411 441.137 402.646 436.089C399.599 432.861 395.309 428.116 393.113 425.544Z" fill="#DC6143"/>
<path fill-rule="evenodd" clip-rule="evenodd" d="M447.736 477.239C447.137 477.838 447.172 479.24 447.813 480.356C448.454 481.472 452.752 485.999 457.364 490.417C464.1 496.869 466.081 498.224 467.435 497.307C469.589 495.85 470.548 478.78 468.587 476.819C466.942 475.174 449.449 475.526 447.736 477.239Z" fill="#DC6143"/>
<path fill-rule="evenodd" clip-rule="evenodd" d="M290.689 425.365C273.693 408.003 261.829 395.156 261.829 394.114C261.828 392.075 319.612 391.694 321.637 393.719C322.326 394.408 322.882 407.266 322.873 422.294L322.857 449.617L350.306 449.727C365.403 449.787 378.347 450.428 379.069 451.151C379.792 451.874 380.376 464.772 380.367 479.814L380.351 507.163L407.745 507.191C422.811 507.207 435.754 507.836 436.507 508.589C437.261 509.342 437.87 522.266 437.861 537.308L437.845 564.657L465.239 564.685C480.305 564.701 493.248 565.33 494.001 566.083C495.921 568.003 495.691 622.755 493.755 624.691C492.261 626.185 487.583 621.691 412.911 547.018C369.319 503.426 330.479 464.854 326.601 461.303C322.722 457.752 306.562 441.58 290.689 425.365ZM484.457 589.872L484.259 575.576L470.293 575.708L456.327 575.84L470.491 590.004L484.656 604.169L484.457 589.872ZM426.757 517.993L426.959 532.334L427.162 546.675L413.215 532.728L399.268 518.781L413.013 518.387L426.757 517.993ZM369.212 460.88C369.59 461.02 369.74 467.339 369.548 474.922L369.197 488.71L355.603 475.116L342.009 461.522L355.268 461.074C362.56 460.827 368.835 460.74 369.212 460.88ZM311.905 403.171L311.909 417.298L311.912 431.425L297.782 417.295L283.651 403.164L297.778 403.168L311.905 403.171Z" fill="#DC6143"/>
<path fill-rule="evenodd" clip-rule="evenodd" d="M274.944 379.901C272.613 382.232 270.707 384.686 270.707 385.355C270.707 386.024 271.046 386.911 271.461 387.325C271.875 387.74 284.667 387.95 299.887 387.792L327.559 387.506L327.462 415.367C327.408 430.691 327.797 443.661 328.326 444.19C328.855 444.719 341.891 445.145 357.296 445.137L385.303 445.123L385.101 472.943C384.989 488.243 385.312 501.176 385.818 501.683C386.324 502.189 399.248 502.616 414.538 502.631L442.338 502.66L442.45 530.697C442.546 554.652 442.943 558.844 445.173 559.486C446.609 559.9 459.543 560.209 473.914 560.173L500.045 560.109L499.944 586.996C499.888 601.784 500.374 614.414 501.023 615.063C501.836 615.877 503.673 614.774 506.933 611.513C510.534 607.912 511.693 605.806 511.79 602.688L511.917 598.593L513.959 600.635C515.715 602.391 516.379 602.219 518.679 599.426C521.341 596.196 521.326 596.141 516.177 590.435C512.834 586.731 510.935 583.537 510.824 581.434C510.662 578.334 511.028 578.504 518.286 584.895L525.919 591.615L530.079 588.016L534.24 584.417L418.284 468.923L302.328 353.43L298.679 357.079L295.03 360.727L302.718 368.94C310.291 377.032 310.353 377.154 306.911 377.153C304.296 377.152 301.787 375.659 296.943 371.22L290.47 365.288L287.742 368.015C285.427 370.33 285.356 371.23 287.269 373.964L289.524 377.185L284.352 376.425C279.812 375.757 278.664 376.182 274.944 379.901ZM364.14 434.398L368.285 434.894L353.419 420.028C338.61 405.219 338.55 405.177 338.38 408.638C338.226 411.744 339.367 413.273 349.102 423.008C358.614 432.52 360.521 433.965 364.14 434.398ZM410.475 477.084C424.845 491.454 424.889 491.512 421.427 491.684C418.313 491.839 416.792 490.698 406.826 480.732C396.861 470.767 395.72 469.245 395.874 466.132C396.044 462.671 396.104 462.713 410.475 477.084ZM467.9 534.509C481.895 548.504 482.123 548.804 479.377 549.635C476.807 550.412 475.662 549.562 465.459 539.304C455.767 529.559 454.296 527.621 453.982 524.178L453.621 520.23L467.9 534.509ZM458.849 549.173C462.274 549.003 462.267 548.943 458.391 545.067C454.516 541.192 454.456 541.185 454.286 544.61C454.191 546.522 454.397 548.37 454.743 548.716C455.089 549.062 456.937 549.268 458.849 549.173ZM404.536 491.212L400.272 491.508C397.927 491.672 395.986 491.769 395.961 491.725C395.935 491.681 396.039 489.733 396.193 487.397L396.473 483.149L400.504 487.18L404.536 491.212ZM347.372 434.048L342.949 434.185C340.515 434.26 338.438 434.236 338.333 434.13C338.227 434.024 338.494 432.239 338.926 430.162L339.711 426.387L343.542 430.218L347.372 434.048Z" fill="#DC6143"/>
<path fill-rule="evenodd" clip-rule="evenodd" d="M251.961 403.214C249.846 405.009 248.267 407.125 248.454 407.916C248.739 409.122 444.393 605.188 470.87 630.799L479.505 639.152L483.101 634.995L486.697 630.837L371.253 515.393L255.808 399.949L251.961 403.214Z" fill="#DC6143"/>
<path fill-rule="evenodd" clip-rule="evenodd" d="M233.917 420.928L239.39 415.455L244.785 420.85C251.382 427.447 250.532 428.579 238.9 428.685C227.904 428.785 227.182 427.663 233.917 420.928Z" fill="#DC6143"/>
<path fill-rule="evenodd" clip-rule="evenodd" d="M263.807 478.48L263.904 450.687L236.512 450.68C218.503 450.675 209.121 450.056 209.121 448.873C209.12 447.883 211.229 444.402 213.806 441.138L218.492 435.203L238.377 435.177L258.263 435.152L268.849 445.738L279.435 456.324L279.334 474.48L279.232 492.636L297.526 492.672L315.819 492.708L326.625 503.514L337.431 514.32L337.096 532.188L336.761 550.056L354.749 549.841L372.737 549.626L383.765 560.654L394.794 571.683L394.454 589.636L394.114 607.589L412.11 607.292L430.106 606.994L441.409 618.298L452.712 629.601L452.683 647.391L452.654 665.182L446.058 671.779C440.164 677.672 439.274 678.189 437.711 676.625C436.648 675.563 436.187 664.71 436.537 648.988L437.114 623.1L408.924 623.198C393.42 623.253 380.298 622.861 379.765 622.328C379.232 621.794 378.769 608.813 378.738 593.481L378.681 565.603L351.057 565.799C335.863 565.907 322.837 565.399 322.108 564.671C321.38 563.943 320.916 550.96 321.077 535.82L321.371 508.293L293.48 508.223C278.14 508.184 265.167 507.73 264.65 507.213C264.133 506.695 263.753 493.766 263.807 478.48Z" fill="#DC6143"/>
<path fill-rule="evenodd" clip-rule="evenodd" d="M298.252 474.318C287.935 464 286.5 464.267 286.389 476.523C286.35 480.787 286.763 484.72 287.307 485.264C288.891 486.848 303.646 486.264 305.361 484.55C306.725 483.185 305.828 481.894 298.252 474.318Z" fill="#DC6143"/>
<path fill-rule="evenodd" clip-rule="evenodd" d="M236.203 493.934L236.199 478.91L222.955 478.862C215.671 478.836 208.963 478.066 208.048 477.152C205.66 474.764 204.581 466.691 206.406 464.866C208.312 462.96 248.48 462.856 250.377 464.752C252.062 466.437 252.177 518.165 250.5 520.418C249.503 521.759 248.146 520.898 242.749 515.501L236.206 508.959L236.203 493.934Z" fill="#DC6143"/>
<path fill-rule="evenodd" clip-rule="evenodd" d="M280.929 520.845C265.386 520.829 252.15 521.333 251.517 521.967C250.696 522.787 252.26 525.012 256.963 529.715L263.56 536.312L278.613 536.355L293.666 536.398L293.709 551.451L293.752 566.505L299.795 572.548C304.029 576.781 306.35 578.364 307.544 577.832C308.568 577.376 309.237 565.859 309.22 548.973L309.191 520.874L280.929 520.845Z" fill="#DC6143"/>
<path fill-rule="evenodd" clip-rule="evenodd" d="M215.246 486.443C216.629 485.061 227.844 485.001 229.212 486.369C230.695 487.852 230.074 497.168 228.38 498.863C227.073 500.169 225.842 499.418 220.445 494.021C215.802 489.378 214.382 487.308 215.246 486.443Z" fill="#DC6143"/>
<path fill-rule="evenodd" clip-rule="evenodd" d="M273.457 543.831C274.111 543.177 277.458 542.686 280.895 542.741C287.135 542.84 287.145 542.845 287.447 546.654C288.372 558.31 286.546 559.298 278.656 551.408C274.013 546.766 272.593 544.695 273.457 543.831Z" fill="#DC6143"/>
<path fill-rule="evenodd" clip-rule="evenodd" d="M366.173 578.725C364.452 577.003 309.67 578.279 309.253 580.051C309.046 580.926 311.668 584.421 315.12 587.873L321.361 594.114L336.261 594.027L351.16 593.941L351.203 608.97L351.246 623.998L357.387 630.139C362.611 635.363 363.765 636.044 365.113 634.695C366.53 633.279 367.537 580.089 366.173 578.725Z" fill="#DC6143"/>
<path fill-rule="evenodd" clip-rule="evenodd" d="M330.734 601.542C332.539 599.737 336.705 599.046 340.725 599.884C344.669 600.707 344.725 600.801 344.82 606.815C344.966 616.025 343.602 616.354 336.15 608.902C332.237 604.989 330.138 602.138 330.734 601.542Z" fill="#DC6143"/>
<path fill-rule="evenodd" clip-rule="evenodd" d="M355.746 531.812C345.501 521.567 344.469 521.739 343.982 533.77C343.807 538.088 344.142 542.1 344.727 542.684C346.366 544.323 361.095 543.803 362.854 542.043C364.219 540.679 363.322 539.387 355.746 531.812Z" fill="#DC6143"/>
<path fill-rule="evenodd" clip-rule="evenodd" d="M401.685 590.977C402.024 586.55 402.812 582.413 403.436 581.782C404.264 580.937 407.001 583.067 413.697 589.762C420.531 596.597 422.528 599.183 421.648 600.063C420.207 601.504 403.547 601.504 402.106 600.063C401.535 599.492 401.345 595.403 401.685 590.977Z" fill="#DC6143"/>
<path fill-rule="evenodd" clip-rule="evenodd" d="M395.975 635.832C379.154 635.815 367.676 636.484 367.22 637.508C366.683 638.715 368.358 641.126 372.955 645.757L379.449 652.3L394.013 651.765L408.577 651.229L408.66 664.538C408.708 672.197 409.524 678.628 410.582 679.686C411.593 680.697 414.96 681.753 418.063 682.033L423.707 682.543L424.19 672.735C424.456 667.341 424.515 656.838 424.322 649.394L423.971 635.861L395.975 635.832Z" fill="#DC6143"/>
<path fill-rule="evenodd" clip-rule="evenodd" d="M388.445 658.819C389.099 658.165 392.446 657.674 395.883 657.729C402.107 657.827 402.133 657.843 402.471 661.635C403.516 673.357 401.625 674.377 393.644 666.396C389.001 661.753 387.581 659.683 388.445 658.819Z" fill="#DC6143"/>
<path fill-rule="evenodd" clip-rule="evenodd" d="M466.627 642.693C460.99 637.056 459.376 638.112 459.513 647.349C459.65 656.503 461.059 657.388 466.63 651.817L471.19 647.256L466.627 642.693Z" fill="#DC6143"/>
</svg>
